<svg width="20" height="20" viewBox="0 0 20 20" fill="none" xmlns="http://www.w3.org/2000/svg">
<path d="M15.87 16.81C15.46 16.54 15 16.35 14.5 16.25C12 15.78 11.75 15 11.75 14.5V13.7C12.65 12.87 13.5 11.53 13.5 10V7.6C13.5 5 11.65 4 10 4C8.35 4 6.5 5 6.5 7.6V10C6.5 11.55 7.35 12.88 8.25 13.7V14.5C8.25 15 7.75 15.8 5.25 16.25C4.81 16.32 4.4 16.49 4.03 16.72M19 10C19 14.97 14.97 19 10 19C5.03 19 1 14.97 1 10C1 5.03 5.03 1 10 1C14.97 1 19 5.03 19 10Z" stroke="#7B96A3" stroke-linecap="round" stroke-linejoin="round"/>
</svg>
