<svg width="161" height="30" viewBox="0 0 161 30" fill="none" xmlns="http://www.w3.org/2000/svg">
<g clip-path="url(#clip0_88_1576)">
<path d="M113.357 6.20225H114.637V22.6709H122.744V23.7111H113.357V6.20225ZM129.142 7.07865C129.142 7.6565 128.742 8.1573 128.062 8.1573C127.472 8.1573 127.062 7.6565 127.062 7.07865C127.062 6.5008 127.512 6 128.112 6C128.712 6 129.142 6.49117 129.142 7.07865ZM127.462 23.7111V11.2392H128.742V23.7111H127.462ZM135.049 14.2247C135.049 13.0787 135.01 12.2215 134.94 11.2488H136.129L136.219 13.5024H136.269C136.979 12.0963 138.598 10.9599 140.727 10.9599C141.957 10.9599 145.246 11.5666 145.246 16.2376V23.7111H143.966V16.3435C143.966 14.0706 143.057 12.0096 140.378 12.0096C138.558 12.0096 137.009 13.2616 136.499 14.8796C136.409 15.1782 136.319 15.6019 136.319 15.9872V23.7014H135.039V14.2151L135.049 14.2247ZM152.843 17.2488H152.893C153.213 16.8636 153.743 16.2857 154.143 15.8812L158.711 11.2488H160.28L155.052 16.4205L161 23.7207H159.441L154.153 17.1814L152.833 18.5201V23.7207H151.554V6.20225H152.833V17.2392L152.843 17.2488ZM52.3891 16.2953H45.5615V21.1011H53.1788V23.7111H42.2627V6.28892H52.7789V8.89888H45.5615V13.7047H52.3791V16.2857L52.3891 16.2953ZM95.7935 21.3612C92.1348 21.3612 89.4858 19.1557 89.4658 15.0048C89.4858 10.8539 92.1348 8.64848 95.7935 8.64848C97.293 8.64848 98.4726 8.95666 99.3323 9.32263L100.052 6.78973C99.3823 6.45265 97.8228 6.00963 95.6536 6.00963C90.1955 6.00963 86.097 9.39005 85.997 15.0048C86.097 20.6196 90.1955 24 95.6536 24C97.8228 24 99.3823 23.557 100.052 23.2199L99.3323 20.687C98.4726 21.053 97.293 21.3612 95.7935 21.3612ZM59.8364 6.28892H63.1352V21.053H70.5626V23.7111H59.8264V6.28892H59.8364ZM80.1191 6.28892V23.7111H76.8203V6.28892H80.1191Z" fill="#222B30"/>
<g clip-path="url(#clip1_88_1576)">
<path d="M12.5315 23.32C9.89951 22.47 7.77596 20.34 6.92854 17.7C5.45303 18.18 2.48206 19.15 0.996582 19.63C2.91076 25.71 8.83275 30.05 15.2233 29.99V23.74C14.2862 23.74 13.3789 23.59 12.5315 23.31V23.32Z" fill="url(#paint0_linear_88_1576)"/>
<path d="M12.5312 6.68001L11.5642 3.71001C6.76874 5.23001 3.34914 9.93001 3.38902 15H9.62007C9.60013 12.6 11.2252 10.37 13.4883 9.65001L12.5212 6.68001H12.5312Z" fill="url(#paint1_linear_88_1576)"/>
<path d="M22.2818 20.14L19.7595 18.3C18.0547 20.77 14.316 21.37 11.9333 19.54L8.27441 24.6C13.3091 28.46 21.2051 27.2 24.8041 21.97L22.2818 20.13V20.14Z" fill="url(#paint2_linear_88_1576)"/>
<path d="M15.2331 4.04695e-06C10.4576 -0.019996 5.90145 2.34 3.12988 6.18C4.38606 7.1 6.91836 8.94 8.17454 9.85C10.2981 6.83 14.4355 5.48 17.9249 6.67L19.849 0.720004C18.3935 0.260004 16.8382 4.04695e-06 15.2331 4.04695e-06Z" fill="url(#paint3_linear_88_1576)"/>
<path d="M29.45 10.36C27.9745 10.84 25.0035 11.81 23.518 12.29C24.7044 15.79 23.3585 19.94 20.3477 22.07C21.2649 23.33 23.0993 25.87 24.0065 27.13C29.1609 23.49 31.4838 16.36 29.44 10.36H29.45Z" fill="url(#paint4_linear_88_1576)"/>
<path d="M26.489 11.33C25.7114 8.94 24.196 6.86 22.1921 5.39C21.2749 6.65 19.4404 9.19 18.5332 10.45C19.9688 11.49 20.8462 13.2 20.8462 15H27.0772C27.0772 13.72 26.8679 12.49 26.499 11.33H26.489Z" fill="url(#paint5_linear_88_1576)"/>
</g>
</g>
<defs>
<linearGradient id="paint0_linear_88_1576" x1="13.7777" y1="28.67" x2="4.77671" y2="19.3473" gradientUnits="userSpaceOnUse">
<stop stop-color="#F09DC1"/>
<stop offset="1" stop-color="#B863A2"/>
</linearGradient>
<linearGradient id="paint1_linear_88_1576" x1="11.8234" y1="5.58001" x2="5.75688" y2="14.3328" gradientUnits="userSpaceOnUse">
<stop stop-color="#03B7DB"/>
<stop offset="1" stop-color="#83CAC6"/>
</linearGradient>
<linearGradient id="paint2_linear_88_1576" x1="11.2155" y1="23.14" x2="21.9334" y2="22.2156" gradientUnits="userSpaceOnUse">
<stop stop-color="#03B7DB"/>
<stop offset="1" stop-color="#83CAC6"/>
</linearGradient>
<linearGradient id="paint3_linear_88_1576" x1="3.12988" y1="4.93" x2="19.849" y2="4.93" gradientUnits="userSpaceOnUse">
<stop stop-color="#F09DC1"/>
<stop offset="1" stop-color="#B863A2"/>
</linearGradient>
<linearGradient id="paint4_linear_88_1576" x1="27.8349" y1="12" x2="23.4845" y2="24.6119" gradientUnits="userSpaceOnUse">
<stop stop-color="#F09DC1"/>
<stop offset="1" stop-color="#B863A2"/>
</linearGradient>
<linearGradient id="paint5_linear_88_1576" x1="24.4951" y1="14.94" x2="20.9884" y2="7.62829" gradientUnits="userSpaceOnUse">
<stop stop-color="#03B7DB"/>
<stop offset="1" stop-color="#83CAC6"/>
</linearGradient>
<clipPath id="clip0_88_1576">
<rect width="161" height="30" fill="white"/>
</clipPath>
<clipPath id="clip1_88_1576">
<rect width="29.1812" height="30" fill="white" transform="translate(1.00635)"/>
</clipPath>
</defs>
</svg>
