<svg width="20" height="20" viewBox="0 0 20 20" fill="none" xmlns="http://www.w3.org/2000/svg">
<g clip-path="url(#clip0_12728_1383)">
<path d="M9.99988 13.4105C11.8835 13.4105 13.4104 11.8836 13.4104 10C13.4104 8.11642 11.8835 6.58948 9.99988 6.58948C8.1163 6.58948 6.58936 8.11642 6.58936 10C6.58936 11.8836 8.1163 13.4105 9.99988 13.4105Z" stroke="#7B96A3" stroke-linecap="round" stroke-linejoin="round"/>
<path d="M18.2421 8.57894H16.3757C16.2147 7.83999 15.921 7.12947 15.5136 6.49473L16.8305 5.17789C16.9442 5.0642 16.9442 4.8842 16.8305 4.77999L15.2199 3.16947C15.1063 3.05578 14.9263 3.05578 14.8221 3.16947L13.5052 4.48631C12.8705 4.07894 12.1599 3.78526 11.421 3.6242V1.75789C11.421 1.59684 11.2978 1.47368 11.1368 1.47368H8.86311C8.70205 1.47368 8.5789 1.59684 8.5789 1.75789V3.6242C7.83995 3.78526 7.12942 4.07894 6.49469 4.48631L5.17784 3.16947C5.06416 3.05578 4.88416 3.05578 4.77995 3.16947L3.16942 4.77999C3.05574 4.89368 3.05574 5.07368 3.16942 5.17789L4.48626 6.49473C4.0789 7.13894 3.78521 7.83999 3.62416 8.57894H1.75784C1.59679 8.57894 1.47363 8.7021 1.47363 8.86315V11.1368C1.47363 11.2979 1.59679 11.421 1.75784 11.421H3.62416C3.78521 12.16 4.0789 12.8705 4.48626 13.5053L3.16942 14.8221C3.05574 14.9358 3.05574 15.1158 3.16942 15.22L4.77995 16.8305C4.89363 16.9442 5.07363 16.9442 5.17784 16.8305L6.49469 15.5137C7.1389 15.921 7.83995 16.2147 8.5789 16.3758V18.2421C8.5789 18.4032 8.70205 18.5263 8.86311 18.5263H11.1368C11.2978 18.5263 11.421 18.4032 11.421 18.2421V16.3758C12.1599 16.2147 12.8705 15.921 13.5052 15.5137L14.8221 16.8305C14.9357 16.9442 15.1157 16.9442 15.2199 16.8305L16.8305 15.22C16.9442 15.1063 16.9442 14.9263 16.8305 14.8221L15.5136 13.5053C15.921 12.8705 16.2147 12.16 16.3757 11.421H18.2421C18.4031 11.421 18.5263 11.2979 18.5263 11.1368V8.86315C18.5263 8.7021 18.4031 8.57894 18.2421 8.57894Z" stroke="#7B96A3" stroke-linecap="round" stroke-linejoin="round"/>
</g>
<defs>
<clipPath id="clip0_12728_1383">
<rect width="18" height="18" fill="white" transform="translate(1 1)"/>
</clipPath>
</defs>
</svg>
