<svg width="40" height="40" viewBox="0 0 40 40" fill="none" xmlns="http://www.w3.org/2000/svg">
<path d="M21.6286 28.5C21.6286 33.1963 25.5154 37 30.3143 37C35.1131 37 39 33.1963 39 28.5C39 23.8037 35.1131 20 30.3143 20M21.6286 28.5C21.6286 23.8037 25.5154 20 30.3143 20M21.6286 28.5H1V3H33.5714V20.6162M30.3143 20V6.1875H4.25714V25.3125H22.2583M25.9714 28.5H34.6571M30.3143 24.25V32.75M25.7434 21.2644L20.5863 12.5625L13.0297 25.3125M15.3314 21.4238L12.0851 16.2069L6.41771 25.3125M4.24629 12.5625C7.84 12.5625 10.7606 9.70437 10.7606 6.1875" stroke="#7B96A3" stroke-linecap="round" stroke-linejoin="round"/>
</svg>
