<svg width="14" height="14" viewBox="0 0 14 14" fill="none" xmlns="http://www.w3.org/2000/svg">
<g clip-path="url(#clip0_22_1036)">
<path d="M7 13C10.3137 13 13 10.3137 13 7C13 3.68629 10.3137 1 7 1C3.68629 1 1 3.68629 1 7C1 10.3137 3.68629 13 7 13Z" stroke="white" stroke-miterlimit="10"/>
<path d="M7 10.75C6.45 10.75 6 10.3 6 9.75C6 9.2 6.45 8.75 7 8.75C7.55 8.75 8 9.2 8 9.75C8 10.3 7.55 10.75 7 10.75ZM7.67 7.25H6.34L6.01 3.25H8.01L7.68 7.25H7.67Z" fill="white"/>
</g>
<defs>
<clipPath id="clip0_22_1036">
<rect width="13" height="13" fill="white" transform="translate(0.5 0.5)"/>
</clipPath>
</defs>
</svg>
