<svg xmlns="http://www.w3.org/2000/svg" width="20" height="20" viewBox="0 0 20 20" fill="none">
<path d="M16.7059 10.2714H17.2059V9.77143H16.7059V10.2714ZM3.29414 10.2714V9.77143H2.79414V10.2714H3.29414ZM3.29414 16.7857H2.79414V17.2857H3.29414V16.7857ZM16.7059 16.7857V17.2857H17.2059V16.7857H16.7059ZM18.3824 19H1.61765V20H18.3824V19ZM1.61765 19C1.26309 19 1 18.7239 1 18.4143H0C0 19.3033 0.738325 20 1.61765 20V19ZM1 18.4143V4.3H0V18.4143H1ZM1 4.3C1 3.99039 1.26309 3.71429 1.61765 3.71429V2.71429C0.738325 2.71429 0 3.41098 0 4.3H1ZM1.61765 3.71429H18.3824V2.71429H1.61765V3.71429ZM18.3824 3.71429C18.7369 3.71429 19 3.99039 19 4.3H20C20 3.41098 19.2617 2.71429 18.3824 2.71429V3.71429ZM19 4.3V18.4143H20V4.3H19ZM19 18.4143C19 18.7239 18.7369 19 18.3824 19V20C19.2617 20 20 19.3033 20 18.4143H19ZM16.7059 9.77143H3.29414V10.7714H16.7059V9.77143ZM2.79414 10.2714V16.7857H3.79414V10.2714H2.79414ZM3.29414 17.2857H16.7059V16.2857H3.29414V17.2857ZM17.2059 16.7857V10.2714H16.2059V16.7857H17.2059ZM0 7.50001H20V6.50001H0V7.50001ZM3.29414 14.0286H16.7059V13.0286H3.29414V14.0286ZM11.7353 10.2714V16.7857H12.7353V10.2714H11.7353ZM7.26469 10.2714V16.7857H8.26469V10.2714H7.26469ZM6.5 5.00001V1.14441e-05H5.5V5.00001H6.5ZM14.5 5.00001V1.14441e-05H13.5V5.00001H14.5Z" fill="#7B96A3"/>
</svg>