<svg width="20" height="20" viewBox="0 0 20 20" fill="none" xmlns="http://www.w3.org/2000/svg">
<path d="M13.8446 15C15.7185 15.4 17 16.05 17 16.82C17 17.59 13.8769 19 10 19C6.12308 19 3 18.02 3 16.82C3 15.62 4.20615 15.4 6.09077 15H6.15538" stroke="#7B96A3" stroke-linecap="round" stroke-linejoin="round"/>
<path d="M10 1.5C13.86 1.5 17 4.64 17 8.5C17 12.36 13.86 15.5 10 15.5C6.14 15.5 3 12.36 3 8.5C3 4.64 6.14 1.5 10 1.5ZM10 0.5C5.58 0.5 2 4.08 2 8.5C2 12.92 5.58 16.5 10 16.5C14.42 16.5 18 12.92 18 8.5C18 4.08 14.42 0.5 10 0.5Z" fill="#7B96A3"/>
<path d="M10 5.3C11.76 5.3 13.2 6.74 13.2 8.5C13.2 10.26 11.76 11.7 10 11.7C8.24005 11.7 6.80005 10.26 6.80005 8.5C6.80005 6.74 8.24005 5.3 10 5.3ZM10 4.3C7.68005 4.3 5.80005 6.18 5.80005 8.5C5.80005 10.82 7.68005 12.7 10 12.7C12.32 12.7 14.2 10.82 14.2 8.5C14.2 6.18 12.32 4.3 10 4.3Z" fill="#7B96A3"/>
<path d="M9.99995 7.7C10.44 7.7 10.8 8.06 10.8 8.5C10.8 8.94 10.44 9.3 9.99995 9.3C9.55995 9.3 9.19995 8.94 9.19995 8.5C9.19995 8.06 9.55995 7.7 9.99995 7.7ZM9.99995 6.7C9.00995 6.7 8.19995 7.51 8.19995 8.5C8.19995 9.49 9.00995 10.3 9.99995 10.3C10.99 10.3 11.8 9.49 11.8 8.5C11.8 7.51 10.99 6.7 9.99995 6.7Z" fill="#7B96A3"/>
</svg>
