<svg width="16" height="16" viewBox="0 0 16 16" fill="none" xmlns="http://www.w3.org/2000/svg">
<g clip-path="url(#clip0_587_24236)">
<path d="M11.36 11.68C12.48 12 13.2 12.47 13.2 13.01C13.2 13.62 10.88 14.76 8.00005 14.76C5.12005 14.76 2.80005 13.97 2.80005 13.01C2.80005 12.18 3.48005 11.94 4.57005 11.68" stroke="#7B96A3" stroke-linecap="round" stroke-linejoin="round"/>
<path d="M8 1.75C10.76 1.75 13 3.99 13 6.75C13 9.51 10.76 11.75 8 11.75C5.24 11.75 3 9.51 3 6.75C3 3.99 5.24 1.75 8 1.75ZM8 0.75C4.69 0.75 2 3.44 2 6.75C2 10.06 4.69 12.75 8 12.75C11.31 12.75 14 10.06 14 6.75C14 3.44 11.31 0.75 8 0.75Z" fill="#7B96A3"/>
<path d="M8 4.75C9.1 4.75 10 5.65 10 6.75C10 7.85 9.1 8.75 8 8.75C6.9 8.75 6 7.85 6 6.75C6 5.65 6.9 4.75 8 4.75ZM8 3.75C6.34 3.75 5 5.09 5 6.75C5 8.41 6.34 9.75 8 9.75C9.66 9.75 11 8.41 11 6.75C11 5.09 9.66 3.75 8 3.75Z" fill="#7B96A3"/>
</g>
<defs>
<clipPath id="clip0_587_24236">
<rect width="12" height="14.5" fill="white" transform="translate(2 0.75)"/>
</clipPath>
</defs>
</svg>
