<svg width="20" height="20" viewBox="0 0 20 20" fill="none" xmlns="http://www.w3.org/2000/svg">
<path d="M1 10.99H3.04C3.11 10.99 3.18 10.95 3.23 10.87L4.91 8.13C4.99 7.99 5.15 7.97 5.25 8.08C5.27 8.1 5.28 8.12 5.3 8.15L7.34 11.87C7.42 12.01 7.57 12.05 7.68 11.94C7.71 11.91 7.73 11.88 7.75 11.84L10.73 5.16C10.8 5.01 10.95 4.96 11.06 5.05C11.11 5.09 11.14 5.14 11.16 5.2L14.19 14.8C14.24 14.96 14.38 15.04 14.51 14.97C14.56 14.94 14.61 14.89 14.64 14.82L16.29 10.52C16.33 10.41 16.41 10.35 16.51 10.35H19M1 2H19V18H1V2Z" stroke="#265C78" stroke-linecap="round" stroke-linejoin="round"/>
</svg>
