<svg width="20" height="20" viewBox="0 0 20 20" fill="none" xmlns="http://www.w3.org/2000/svg">
<g clip-path="url(#clip0_2337_881)">
<mask id="mask0_2337_881" style="mask-type:alpha" maskUnits="userSpaceOnUse" x="0" y="4" width="20" height="12">
<rect y="4" width="20" height="12" fill="black"/>
</mask>
<g mask="url(#mask0_2337_881)">
<path d="M0.526367 9.9995L0.120663 9.70726L-0.0898449 9.9995L0.120663 10.2917L0.526367 9.9995ZM19.4737 9.9995L19.8794 10.2917L20.0899 9.9995L19.8794 9.70726L19.4737 9.9995ZM10.0001 4.01514C7.07358 4.01514 4.59503 5.46526 2.87566 6.87013C2.01143 7.57628 1.32596 8.28152 0.856098 8.81053C0.620896 9.07535 0.438986 9.29684 0.314994 9.45335C0.25298 9.53162 0.205399 9.59371 0.17283 9.63691C0.156543 9.65851 0.144005 9.6754 0.135288 9.68724C0.130929 9.69315 0.127525 9.69781 0.125085 9.70116C0.123864 9.70284 0.122885 9.70418 0.122148 9.7052C0.121779 9.70571 0.121471 9.70614 0.121223 9.70648C0.1211 9.70665 0.120959 9.70685 0.120898 9.70693C0.120773 9.70711 0.120663 9.70726 0.526367 9.9995C0.932072 10.2917 0.931992 10.2918 0.931927 10.2919C0.931926 10.2919 0.931876 10.292 0.931872 10.292C0.931866 10.292 0.931919 10.2919 0.932031 10.2918C0.932256 10.2915 0.932719 10.2908 0.933418 10.2899C0.934818 10.288 0.937164 10.2848 0.940449 10.2803C0.947018 10.2714 0.957338 10.2575 0.971334 10.2389C0.999331 10.2018 1.04202 10.146 1.09881 10.0743C1.21244 9.93091 1.38232 9.72394 1.60377 9.4746C2.04724 8.9753 2.69459 8.30945 3.50839 7.6445C5.14508 6.30719 7.40337 5.01514 10.0001 5.01514V4.01514ZM0.526367 9.9995C0.120663 10.2917 0.120773 10.2919 0.120898 10.2921C0.120959 10.2921 0.1211 10.2923 0.121223 10.2925C0.121471 10.2929 0.121779 10.2933 0.122148 10.2938C0.122885 10.2948 0.123864 10.2962 0.125085 10.2978C0.127525 10.3012 0.130929 10.3058 0.135288 10.3118C0.144005 10.3236 0.156543 10.3405 0.17283 10.3621C0.205399 10.4053 0.25298 10.4674 0.314994 10.5456C0.438986 10.7022 0.620896 10.9236 0.856098 11.1885C1.32596 11.7175 2.01143 12.4227 2.87566 13.1289C4.59503 14.5337 7.07358 15.9839 10.0001 15.9839V14.9839C7.40337 14.9839 5.14508 13.6918 3.50839 12.3545C2.69459 11.6895 2.04724 11.0237 1.60377 10.5244C1.38232 10.2751 1.21244 10.0681 1.09881 9.92466C1.04202 9.85297 0.999331 9.79723 0.971334 9.76009C0.957338 9.74153 0.947018 9.72762 0.940449 9.7187C0.937164 9.71424 0.934818 9.71103 0.933418 9.70911C0.932719 9.70815 0.932256 9.70751 0.932031 9.7072C0.931919 9.70705 0.931866 9.70697 0.931872 9.70698C0.931876 9.70699 0.931926 9.70706 0.931927 9.70706C0.931992 9.70715 0.932072 9.70726 0.526367 9.9995ZM10.0001 15.9839C12.9265 15.9839 15.4051 14.5337 17.1244 13.1289C17.9887 12.4227 18.6741 11.7175 19.144 11.1885C19.3792 10.9236 19.5611 10.7022 19.6851 10.5456C19.7471 10.4674 19.7947 10.4053 19.8273 10.3621C19.8436 10.3405 19.8561 10.3236 19.8648 10.3118C19.8692 10.3058 19.8726 10.3012 19.875 10.2978C19.8762 10.2962 19.8772 10.2948 19.878 10.2938C19.8783 10.2933 19.8786 10.2929 19.8789 10.2925C19.879 10.2923 19.8791 10.2921 19.8792 10.2921C19.8793 10.2919 19.8794 10.2917 19.4737 9.9995C19.068 9.70726 19.0681 9.70715 19.0682 9.70706C19.0682 9.70706 19.0682 9.70699 19.0682 9.70698C19.0682 9.70697 19.0682 9.70705 19.0681 9.7072C19.0678 9.70751 19.0674 9.70815 19.0667 9.70911C19.0653 9.71103 19.0629 9.71424 19.0597 9.7187C19.0531 9.72762 19.0428 9.74153 19.0288 9.76009C19.0008 9.79723 18.9581 9.85297 18.9013 9.92466C18.7877 10.0681 18.6178 10.2751 18.3963 10.5244C17.9529 11.0237 17.3055 11.6895 16.4917 12.3545C14.855 13.6918 12.5967 14.9839 10.0001 14.9839V15.9839ZM19.4737 9.9995C19.8794 9.70726 19.8793 9.70711 19.8792 9.70693C19.8791 9.70685 19.879 9.70665 19.8789 9.70648C19.8786 9.70614 19.8783 9.70571 19.878 9.7052C19.8772 9.70418 19.8762 9.70284 19.875 9.70116C19.8726 9.69781 19.8692 9.69315 19.8648 9.68724C19.8561 9.6754 19.8436 9.65851 19.8273 9.63691C19.7947 9.59371 19.7471 9.53162 19.6851 9.45335C19.5611 9.29684 19.3792 9.07535 19.144 8.81053C18.6741 8.28152 17.9887 7.57628 17.1244 6.87013C15.4051 5.46526 12.9265 4.01514 10.0001 4.01514V5.01514C12.5967 5.01514 14.855 6.30719 16.4917 7.6445C17.3055 8.30945 17.9529 8.9753 18.3963 9.4746C18.6178 9.72394 18.7877 9.93091 18.9013 10.0743C18.9581 10.146 19.0008 10.2018 19.0288 10.2389C19.0428 10.2575 19.0531 10.2714 19.0597 10.2803C19.0629 10.2848 19.0653 10.288 19.0667 10.2899C19.0674 10.2908 19.0678 10.2915 19.0681 10.2918C19.0682 10.2919 19.0682 10.292 19.0682 10.292C19.0682 10.292 19.0682 10.2919 19.0682 10.2919C19.0681 10.2918 19.068 10.2917 19.4737 9.9995ZM10.0001 6.58166C11.8638 6.58166 13.3537 8.05325 13.3537 9.84275H14.3537C14.3537 7.47822 12.3931 5.58166 10.0001 5.58166V6.58166ZM13.3537 9.84275C13.3537 11.6322 11.8638 13.1038 10.0001 13.1038V14.1038C12.3931 14.1038 14.3537 12.2073 14.3537 9.84275H13.3537ZM10.0001 13.1038C8.13626 13.1038 6.64637 11.6322 6.64637 9.84275H5.64637C5.64637 12.2073 7.607 14.1038 10.0001 14.1038V13.1038ZM6.64637 9.84275C6.64637 8.05326 8.13626 6.58166 10.0001 6.58166V5.58166C7.607 5.58166 5.64637 7.47823 5.64637 9.84275H6.64637Z" fill="#7B96A3"/>
</g>
</g>
<defs>
<clipPath id="clip0_2337_881">
<rect width="20" height="12" fill="white" transform="translate(0 4)"/>
</clipPath>
</defs>
</svg>
