<svg width="20" height="20" viewBox="0 0 20 20" fill="none" xmlns="http://www.w3.org/2000/svg">
<g clip-path="url(#clip0_2337_2967)">
<mask id="mask0_2337_2967" style="mask-type:alpha" maskUnits="userSpaceOnUse" x="0" y="0" width="20" height="20">
<rect width="20" height="20" fill="black"/>
</mask>
<g mask="url(#mask0_2337_2967)">
<path d="M9.99987 15.684V15.184L9.99906 15.184L9.99987 15.684ZM19.3157 10.1577L19.7247 10.4452L19.9335 10.1482L19.7157 9.85772L19.3157 10.1577ZM9.99987 4.63135L10.0059 4.13135H9.99987V4.63135ZM0.684082 10.1577L0.275016 9.87015L0.0660634 10.1674L0.284313 10.458L0.684082 10.1577ZM7.95917 15.9497C8.62885 16.107 9.31383 16.1851 10.0007 16.184L9.99906 15.184C9.38907 15.185 8.78142 15.1157 8.18794 14.9762L7.95917 15.9497ZM9.99987 16.184C12.8846 16.184 15.3252 14.7196 17.0156 13.3042C17.8657 12.5924 18.5398 11.8817 19.0017 11.3486C19.233 11.0818 19.4118 10.8586 19.5337 10.7009C19.5947 10.6221 19.6415 10.5595 19.6735 10.516C19.6895 10.4942 19.7018 10.4772 19.7104 10.4653C19.7147 10.4594 19.718 10.4547 19.7204 10.4513C19.7216 10.4496 19.7225 10.4483 19.7233 10.4472C19.7236 10.4467 19.7239 10.4463 19.7242 10.446C19.7243 10.4458 19.7244 10.4456 19.7245 10.4455C19.7246 10.4453 19.7247 10.4452 19.3157 10.1577C18.9066 9.87015 18.9067 9.87004 18.9067 9.86995C18.9067 9.86995 18.9068 9.86988 18.9068 9.86987C18.9068 9.86987 18.9067 9.86994 18.9066 9.8701C18.9064 9.87041 18.906 9.87106 18.9053 9.87203C18.9039 9.87397 18.9016 9.87721 18.8983 9.88171C18.8919 9.89071 18.8817 9.90473 18.868 9.92345C18.8404 9.96088 18.7984 10.0171 18.7426 10.0893C18.6308 10.2339 18.4638 10.4424 18.246 10.6937C17.81 11.1968 17.1736 11.8677 16.3736 12.5375C14.764 13.8852 12.5467 15.184 9.99987 15.184V16.184ZM19.7157 9.85772C18.8283 8.67412 17.789 7.61314 16.6239 6.70084L16.0074 7.48817C17.1034 8.3464 18.0809 9.34437 18.9156 10.4576L19.7157 9.85772ZM14.5008 5.29676C13.1189 4.54977 11.5762 4.15025 10.0059 4.13138L9.99387 5.13131C11.4025 5.14823 12.7861 5.50661 14.0253 6.17646L14.5008 5.29676ZM9.99987 4.13135C7.11515 4.13135 4.67454 5.59574 2.98414 7.01115C2.13409 7.72292 1.45998 8.43367 0.998014 8.96671C0.766751 9.23355 0.587903 9.45673 0.466012 9.6144C0.405048 9.69326 0.358277 9.75581 0.326267 9.79932C0.31026 9.82108 0.297939 9.83809 0.289375 9.85C0.285093 9.85596 0.281749 9.86065 0.279353 9.86402C0.278155 9.86571 0.277194 9.86706 0.276471 9.86809C0.276109 9.8686 0.275807 9.86903 0.275564 9.86937C0.275443 9.86954 0.275306 9.86974 0.275245 9.86982C0.275123 9.87 0.275016 9.87015 0.684082 10.1577C1.09315 10.4452 1.09307 10.4453 1.09301 10.4454C1.09301 10.4454 1.09296 10.4454 1.09295 10.4455C1.09295 10.4455 1.093 10.4454 1.09311 10.4452C1.09334 10.4449 1.09379 10.4443 1.09448 10.4433C1.09586 10.4414 1.09817 10.4381 1.10141 10.4336C1.10787 10.4246 1.11802 10.4106 1.13179 10.3919C1.15933 10.3544 1.20132 10.2983 1.25717 10.226C1.36891 10.0815 1.53595 9.87289 1.7537 9.62164C2.18976 9.1185 2.82618 8.44767 3.62613 7.77786C5.23573 6.43011 7.45301 5.13135 9.99987 5.13135V4.13135ZM0.284313 10.458C1.63776 12.2597 3.34395 13.7662 5.29865 14.8862L5.79583 14.0186C3.95895 12.966 2.35566 11.5504 1.08385 9.85736L0.284313 10.458ZM9.99987 14.2892C12.3686 14.2892 14.2893 12.3685 14.2893 9.99977H13.2893C13.2893 11.8163 11.8164 13.2892 9.99987 13.2892V14.2892ZM13.0376 6.962C11.3603 5.28464 8.63947 5.28464 6.96211 6.962L7.66921 7.66911C8.95606 6.38227 11.0437 6.38227 12.3305 7.66911L13.0376 6.962ZM6.96211 6.962C5.28474 8.63937 5.28474 11.3602 6.96211 13.0375L7.66921 12.3304C6.38237 11.0436 6.38237 8.95596 7.66921 7.66911L6.96211 6.962Z" fill="#7B96A3"/>
<path d="M19.4737 0.526367L0.526367 19.4737" stroke="#7B96A3"/>
</g>
</g>
<defs>
<clipPath id="clip0_2337_2967">
<rect width="20" height="20" fill="white"/>
</clipPath>
</defs>
</svg>
