<svg width="20" height="20" viewBox="0 0 20 20" fill="none" xmlns="http://www.w3.org/2000/svg">
<path d="M9.63 1.165L1.13 10.605C1.05 10.695 1 10.815 1 10.935V18.245C1 18.525 1.22 18.745 1.5 18.745H7C7.28 18.745 7.5 18.525 7.5 18.245V13.385C7.5 12.075 8.44 10.885 9.74 10.755C11.24 10.605 12.5 11.775 12.5 13.245V18.245C12.5 18.525 12.72 18.745 13 18.745H18.5C18.78 18.745 19 18.525 19 18.245V10.935C19 10.815 18.95 10.695 18.87 10.605L10.37 1.165C10.17 0.945 9.83 0.945 9.63 1.165Z" fill="#2C8CAF"/>
</svg>
