<svg xmlns="http://www.w3.org/2000/svg" width="21" height="20" viewBox="0 0 21 20" fill="none">
  <path d="M16.37 16.81C15.96 16.54 15.5 16.35 15 16.25C12.5 15.78 12.25 15 12.25 14.5V13.7C13.15 12.87 14 11.53 14 10V7.6C14 5 12.15 4 10.5 4C8.85 4 7 5 7 7.6V10C7 11.55 7.85 12.88 8.75 13.7V14.5C8.75 15 8.25 15.8 5.75 16.25C5.31 16.32 4.9 16.49 4.53 16.72M19.5 10C19.5 14.97 15.47 19 10.5 19C5.53 19 1.5 14.97 1.5 10C1.5 5.03 5.53 1 10.5 1C15.47 1 19.5 5.03 19.5 10Z" stroke="white" stroke-linecap="round" stroke-linejoin="round"/>
</svg>