<svg width="20" height="20" viewBox="0 0 20 20" fill="none" xmlns="http://www.w3.org/2000/svg">
<g clip-path="url(#clip0_1421_29433)">
<mask id="mask0_1421_29433" style="mask-type:alpha" maskUnits="userSpaceOnUse" x="0" y="4" width="20" height="12">
<rect y="4" width="20" height="12" fill="black"/>
</mask>
<g mask="url(#mask0_1421_29433)">
<path d="M0.526367 9.99936L0.120663 9.70712L-0.0898449 9.99936L0.120663 10.2916L0.526367 9.99936ZM19.4737 9.99936L19.8794 10.2916L20.0899 9.99936L19.8794 9.70712L19.4737 9.99936ZM10.0001 4.015C7.07358 4.015 4.59503 5.46512 2.87566 6.86999C2.01143 7.57614 1.32596 8.28138 0.856098 8.8104C0.620896 9.07521 0.438986 9.29671 0.314994 9.45321C0.25298 9.53148 0.205399 9.59357 0.17283 9.63677C0.156543 9.65838 0.144005 9.67526 0.135288 9.6871C0.130929 9.69302 0.127525 9.69767 0.125085 9.70102C0.123864 9.7027 0.122885 9.70405 0.122148 9.70507C0.121779 9.70557 0.121471 9.706 0.121223 9.70634C0.1211 9.70651 0.120959 9.70671 0.120898 9.70679C0.120773 9.70697 0.120663 9.70712 0.526367 9.99936C0.932072 10.2916 0.931992 10.2917 0.931927 10.2918C0.931926 10.2918 0.931876 10.2919 0.931872 10.2919C0.931866 10.2919 0.931919 10.2918 0.932031 10.2917C0.932256 10.2913 0.932719 10.2907 0.933418 10.2897C0.934818 10.2878 0.937164 10.2846 0.940449 10.2802C0.947018 10.2712 0.957338 10.2573 0.971334 10.2388C0.999331 10.2016 1.04202 10.1459 1.09881 10.0742C1.21244 9.93078 1.38232 9.7238 1.60377 9.47446C2.04724 8.97516 2.69459 8.30931 3.50839 7.64437C5.14508 6.30705 7.40337 5.015 10.0001 5.015V4.015ZM0.526367 9.99936C0.120663 10.2916 0.120773 10.2918 0.120898 10.2919C0.120959 10.292 0.1211 10.2922 0.121223 10.2924C0.121471 10.2927 0.121779 10.2931 0.122148 10.2937C0.122885 10.2947 0.123864 10.296 0.125085 10.2977C0.127525 10.301 0.130929 10.3057 0.135288 10.3116C0.144005 10.3235 0.156543 10.3403 0.17283 10.3619C0.205399 10.4051 0.25298 10.4672 0.314994 10.5455C0.438986 10.702 0.620896 10.9235 0.856098 11.1883C1.32596 11.7173 2.01143 12.4226 2.87566 13.1287C4.59503 14.5336 7.07358 15.9837 10.0001 15.9837V14.9837C7.40337 14.9837 5.14508 13.6917 3.50839 12.3544C2.69459 11.6894 2.04724 11.0236 1.60377 10.5243C1.38232 10.2749 1.21244 10.0679 1.09881 9.92452C1.04202 9.85283 0.999331 9.79709 0.971334 9.75996C0.957338 9.74139 0.947018 9.72748 0.940449 9.71856C0.937164 9.71411 0.934818 9.71089 0.933418 9.70897C0.932719 9.70801 0.932256 9.70737 0.932031 9.70706C0.931919 9.70691 0.931866 9.70683 0.931872 9.70684C0.931876 9.70685 0.931926 9.70692 0.931927 9.70692C0.931992 9.70701 0.932072 9.70712 0.526367 9.99936ZM10.0001 15.9837C12.9265 15.9837 15.4051 14.5336 17.1244 13.1287C17.9887 12.4226 18.6741 11.7173 19.144 11.1883C19.3792 10.9235 19.5611 10.702 19.6851 10.5455C19.7471 10.4672 19.7947 10.4051 19.8273 10.3619C19.8436 10.3403 19.8561 10.3235 19.8648 10.3116C19.8692 10.3057 19.8726 10.301 19.875 10.2977C19.8762 10.296 19.8772 10.2947 19.878 10.2937C19.8783 10.2931 19.8786 10.2927 19.8789 10.2924C19.879 10.2922 19.8791 10.292 19.8792 10.2919C19.8793 10.2918 19.8794 10.2916 19.4737 9.99936C19.068 9.70712 19.0681 9.70701 19.0682 9.70692C19.0682 9.70692 19.0682 9.70685 19.0682 9.70684C19.0682 9.70683 19.0682 9.70691 19.0681 9.70706C19.0678 9.70737 19.0674 9.70801 19.0667 9.70897C19.0653 9.71089 19.0629 9.71411 19.0597 9.71856C19.0531 9.72748 19.0428 9.74139 19.0288 9.75996C19.0008 9.79709 18.9581 9.85283 18.9013 9.92452C18.7877 10.0679 18.6178 10.2749 18.3963 10.5243C17.9529 11.0236 17.3055 11.6894 16.4917 12.3544C14.855 13.6917 12.5967 14.9837 10.0001 14.9837V15.9837ZM19.4737 9.99936C19.8794 9.70712 19.8793 9.70697 19.8792 9.70679C19.8791 9.70671 19.879 9.70651 19.8789 9.70634C19.8786 9.706 19.8783 9.70557 19.878 9.70507C19.8772 9.70405 19.8762 9.7027 19.875 9.70102C19.8726 9.69767 19.8692 9.69302 19.8648 9.6871C19.8561 9.67526 19.8436 9.65838 19.8273 9.63677C19.7947 9.59357 19.7471 9.53148 19.6851 9.45321C19.5611 9.29671 19.3792 9.07521 19.144 8.8104C18.6741 8.28138 17.9887 7.57614 17.1244 6.86999C15.4051 5.46512 12.9265 4.015 10.0001 4.015V5.015C12.5967 5.015 14.855 6.30705 16.4917 7.64437C17.3055 8.30931 17.9529 8.97516 18.3963 9.47446C18.6178 9.7238 18.7877 9.93078 18.9013 10.0742C18.9581 10.1459 19.0008 10.2016 19.0288 10.2388C19.0428 10.2573 19.0531 10.2712 19.0597 10.2802C19.0629 10.2846 19.0653 10.2878 19.0667 10.2897C19.0674 10.2907 19.0678 10.2913 19.0681 10.2917C19.0682 10.2918 19.0682 10.2919 19.0682 10.2919C19.0682 10.2919 19.0682 10.2918 19.0682 10.2918C19.0681 10.2917 19.068 10.2916 19.4737 9.99936ZM10.0001 6.58152C11.8638 6.58152 13.3537 8.05311 13.3537 9.84261H14.3537C14.3537 7.47809 12.3931 5.58152 10.0001 5.58152V6.58152ZM13.3537 9.84261C13.3537 11.6321 11.8638 13.1037 10.0001 13.1037V14.1037C12.3931 14.1037 14.3537 12.2071 14.3537 9.84261H13.3537ZM10.0001 13.1037C8.13626 13.1037 6.64637 11.6321 6.64637 9.84261H5.64637C5.64637 12.2071 7.607 14.1037 10.0001 14.1037V13.1037ZM6.64637 9.84261C6.64637 8.05312 8.13626 6.58152 10.0001 6.58152V5.58152C7.607 5.58152 5.64637 7.4781 5.64637 9.84261H6.64637Z" fill="#7B96A3"/>
</g>
</g>
<defs>
<clipPath id="clip0_1421_29433">
<rect width="20" height="12" fill="white" transform="translate(0 4)"/>
</clipPath>
</defs>
</svg>
