<svg width="20" height="20" viewBox="0 0 20 20" fill="none" xmlns="http://www.w3.org/2000/svg">
<g clip-path="url(#clip0_1421_29437)">
<mask id="mask0_1421_29437" style="mask-type:alpha" maskUnits="userSpaceOnUse" x="0" y="0" width="20" height="20">
<rect width="20" height="20" fill="black"/>
</mask>
<g mask="url(#mask0_1421_29437)">
<path d="M9.99987 15.6842V15.1842L9.99906 15.1842L9.99987 15.6842ZM19.3157 10.1579L19.7247 10.4454L19.9335 10.1484L19.7157 9.85795L19.3157 10.1579ZM9.99987 4.63158L10.0059 4.13158H9.99987V4.63158ZM0.684082 10.1579L0.275016 9.87038L0.0660634 10.1677L0.284313 10.4582L0.684082 10.1579ZM7.95917 15.9499C8.62885 16.1073 9.31383 16.1853 10.0007 16.1842L9.99906 15.1842C9.38907 15.1852 8.78142 15.1159 8.18794 14.9764L7.95917 15.9499ZM9.99987 16.1842C12.8846 16.1842 15.3252 14.7198 17.0156 13.3044C17.8657 12.5926 18.5398 11.8819 19.0017 11.3488C19.233 11.082 19.4118 10.8588 19.5337 10.7012C19.5947 10.6223 19.6415 10.5598 19.6735 10.5162C19.6895 10.4945 19.7018 10.4775 19.7104 10.4656C19.7147 10.4596 19.718 10.4549 19.7204 10.4515C19.7216 10.4499 19.7225 10.4485 19.7233 10.4475C19.7236 10.447 19.7239 10.4465 19.7242 10.4462C19.7243 10.446 19.7244 10.4458 19.7245 10.4457C19.7246 10.4456 19.7247 10.4454 19.3157 10.1579C18.9066 9.87038 18.9067 9.87027 18.9067 9.87018C18.9067 9.87018 18.9068 9.87011 18.9068 9.8701C18.9068 9.87009 18.9067 9.87017 18.9066 9.87033C18.9064 9.87064 18.906 9.87129 18.9053 9.87226C18.9039 9.8742 18.9016 9.87744 18.8983 9.88194C18.8919 9.89093 18.8817 9.90496 18.868 9.92368C18.8404 9.96111 18.7984 10.0173 18.7426 10.0895C18.6308 10.2341 18.4638 10.4427 18.246 10.6939C17.81 11.1971 17.1736 11.8679 16.3736 12.5377C14.764 13.8854 12.5467 15.1842 9.99987 15.1842V16.1842ZM19.7157 9.85795C18.8283 8.67434 17.789 7.61337 16.6239 6.70107L16.0074 7.4884C17.1034 8.34663 18.0809 9.3446 18.9156 10.4578L19.7157 9.85795ZM14.5008 5.29699C13.1189 4.55 11.5762 4.15048 10.0059 4.13161L9.99387 5.13154C11.4025 5.14846 12.7861 5.50684 14.0253 6.17669L14.5008 5.29699ZM9.99987 4.13158C7.11515 4.13158 4.67454 5.59597 2.98414 7.01138C2.13409 7.72315 1.45998 8.4339 0.998014 8.96694C0.766751 9.23378 0.587903 9.45695 0.466012 9.61463C0.405048 9.69349 0.358277 9.75603 0.326267 9.79955C0.31026 9.82131 0.297939 9.83832 0.289375 9.85023C0.285093 9.85619 0.281749 9.86088 0.279353 9.86425C0.278155 9.86593 0.277194 9.86729 0.276471 9.86831C0.276109 9.86883 0.275807 9.86925 0.275564 9.8696C0.275443 9.86977 0.275306 9.86997 0.275245 9.87005C0.275123 9.87022 0.275016 9.87038 0.684082 10.1579C1.09315 10.4454 1.09307 10.4455 1.09301 10.4456C1.09301 10.4456 1.09296 10.4457 1.09295 10.4457C1.09295 10.4457 1.093 10.4456 1.09311 10.4455C1.09334 10.4451 1.09379 10.4445 1.09448 10.4435C1.09586 10.4416 1.09817 10.4383 1.10141 10.4338C1.10787 10.4248 1.11802 10.4108 1.13179 10.3921C1.15933 10.3547 1.20132 10.2985 1.25717 10.2262C1.36891 10.0817 1.53595 9.87312 1.7537 9.62187C2.18976 9.11872 2.82618 8.4479 3.62613 7.77809C5.23573 6.43034 7.45301 5.13158 9.99987 5.13158V4.13158ZM0.284313 10.4582C1.63776 12.2599 3.34395 13.7664 5.29865 14.8865L5.79583 14.0188C3.95895 12.9662 2.35566 11.5506 1.08385 9.85758L0.284313 10.4582ZM9.99987 14.2895C12.3686 14.2895 14.2893 12.3688 14.2893 10H13.2893C13.2893 11.8165 11.8164 13.2895 9.99987 13.2895V14.2895ZM13.0376 6.96223C11.3603 5.28487 8.63947 5.28487 6.96211 6.96223L7.66921 7.66934C8.95606 6.3825 11.0437 6.3825 12.3305 7.66934L13.0376 6.96223ZM6.96211 6.96223C5.28474 8.6396 5.28474 11.3604 6.96211 13.0378L7.66921 12.3307C6.38237 11.0438 6.38237 8.95618 7.66921 7.66934L6.96211 6.96223Z" fill="#7B96A3"/>
<path d="M19.4737 0.526314L0.526367 19.4737" stroke="#7B96A3"/>
</g>
</g>
<defs>
<clipPath id="clip0_1421_29437">
<rect width="20" height="20" fill="white"/>
</clipPath>
</defs>
</svg>
