<svg width="20" height="20" viewBox="0 0 20 20" fill="none" xmlns="http://www.w3.org/2000/svg">
<path d="M7.58486 14.6426C7.26986 14.962 6.88736 15.1217 6.43736 15.1217C5.98736 15.1217 5.60486 14.962 5.28986 14.6426C4.97486 14.3232 4.81736 13.9354 4.81736 13.4791C4.81736 13.0228 4.97486 12.635 5.28986 12.3156C5.60486 11.9962 5.98736 11.8365 6.43736 11.8365C6.88736 11.8365 7.26986 11.9962 7.58486 12.3156C7.89986 12.635 8.05736 13.0228 8.05736 13.4791C8.05736 13.9354 7.89986 14.3232 7.58486 14.6426ZM10.0149 17.1065C10.8174 16.2928 11.2824 15.2966 11.3949 14.1103C11.5074 12.9316 11.2749 11.8593 10.6899 10.9087L13.3299 8.23194L15.3324 7.98099L15.8199 5.03802L18.5349 4.68821L18.6174 1.37262H16.6524L8.96486 9.1673C8.06486 8.58935 7.02986 8.3384 5.86736 8.42966C4.70486 8.52091 3.69986 8.9924 2.85236 9.85171C1.85486 10.8631 1.35986 12.0722 1.35986 13.4791C1.35986 14.8859 1.85486 16.0951 2.85236 17.1065C3.84986 18.1179 5.04236 18.6198 6.42986 18.6198C7.81736 18.6198 9.00986 18.1179 10.0074 17.1065H10.0149Z" stroke="#7B96A3" stroke-linejoin="round"/>
</svg>
