<svg width="20" height="20" viewBox="0 0 20 20" fill="none" xmlns="http://www.w3.org/2000/svg">
<g clip-path="url(#clip0_7642_11958)">
<path d="M9.99989 0.416016C7.84847 3.96602 1.42847 4.83268 1.42847 4.83268V9.73268C1.54847 14.066 4.90847 17.9327 9.99989 19.5827C15.0913 17.9327 18.4513 14.066 18.5713 9.73268V4.83268C18.5713 4.83268 12.1513 3.96602 9.99989 0.416016Z" stroke="#265C78" stroke-linejoin="round"/>
<path d="M6.14282 17.6992C6.26282 16.9909 6.82854 16.4409 7.55711 16.3242C8.84282 16.0992 9.09996 15.6992 9.09996 15.4492V15.0492C8.63711 14.6409 8.19996 13.9742 8.19996 13.1992V11.9992C8.19996 10.6992 9.15139 10.1992 9.99997 10.1992C10.8485 10.1992 11.8 10.6992 11.8 11.9992V13.1992C11.8 13.9576 11.3628 14.6409 10.9 15.0492V15.4492C10.9 15.6992 11.0285 16.0826 12.3143 16.3242C13.0514 16.4659 13.6514 16.9909 13.8571 17.6992" stroke="#265C78" stroke-linejoin="round"/>
<path d="M2.04565 12.725C2.26851 12.55 2.5428 12.425 2.8428 12.375C4.12851 12.15 4.38565 11.75 4.38565 11.5V11.1C3.9228 10.6917 3.48565 10.025 3.48565 9.25V8.05C3.48565 6.75 4.43708 6.25 5.28565 6.25C6.13423 6.25 7.08565 6.75 7.08565 8.05V9.25C7.08565 10.0083 6.64851 10.6917 6.18565 11.1V11.5C6.18565 11.75 6.31423 12.1333 7.59994 12.375C7.81422 12.4167 8.01994 12.4917 8.19994 12.5917" stroke="#265C78" stroke-linejoin="round"/>
<path d="M11.8 12.525C11.9458 12.4583 12.1086 12.4083 12.2715 12.375C13.5572 12.15 13.8143 11.75 13.8143 11.5V11.1C13.3515 10.6917 12.9143 10.025 12.9143 9.25V8.05C12.9143 6.75 13.8658 6.25 14.7143 6.25C15.5629 6.25 16.5143 6.75 16.5143 8.05V9.25C16.5143 10.0083 16.0772 10.6917 15.6143 11.1V11.5C15.6143 11.75 15.7429 12.1333 17.0286 12.375C17.3629 12.4417 17.6715 12.5833 17.9286 12.7917" stroke="#265C78" stroke-linejoin="round"/>
</g>
<defs>
<clipPath id="clip0_7642_11958">
<rect width="18" height="20" fill="white" transform="translate(1)"/>
</clipPath>
</defs>
</svg>
