<svg width="20" height="20" viewBox="0 0 20 20" fill="none" xmlns="http://www.w3.org/2000/svg">
<path d="M16.5 4H14.5V5.5C14.5 5.78 14.28 6 14 6H5C4.72 6 4.5 5.78 4.5 5.5V4H2.5C2.22 4 2 4.22 2 4.5V19.5C2 19.78 2.22 20 2.5 20H16.5C16.78 20 17 19.78 17 19.5V4.5C17 4.22 16.78 4 16.5 4ZM14.5 17C14.5 17.28 14.28 17.5 14 17.5H5C4.72 17.5 4.5 17.28 4.5 17V9C4.5 8.72 4.72 8.5 5 8.5H14C14.28 8.5 14.5 8.72 14.5 9V17ZM13 2.5C13.28 2.5 13.5 2.72 13.5 3V4.5C13.5 4.78 13.28 5 13 5H6C5.72 5 5.5 4.78 5.5 4.5V3C5.5 2.72 5.72 2.5 6 2.5H8C8 1.67 8.67 1 9.5 1C10.33 1 11 1.67 11 2.5H13ZM12.5 15.75H6.5V14.75H12.5V15.75ZM12.5 13.5H6.5V12.5H12.5V13.5ZM12.5 11.25H6.5V10.25H12.5V11.25Z" fill="#2C8CAF"/>
</svg>
