<svg width="20" height="21" viewBox="0 0 20 21" fill="none" xmlns="http://www.w3.org/2000/svg">
<path d="M18.3824 19.25H1.61765V20.25H18.3824V19.25ZM1.61765 19.25C1.26309 19.25 1 18.9739 1 18.6643H0C0 19.5533 0.738325 20.25 1.61765 20.25V19.25ZM1 18.6643V4.54999H0V18.6643H1ZM1 4.54999C1 4.24038 1.26309 3.96428 1.61765 3.96428V2.96428C0.738325 2.96428 0 3.66097 0 4.54999H1ZM1.61765 3.96428H18.3824V2.96428H1.61765V3.96428ZM18.3824 3.96428C18.7369 3.96428 19 4.24038 19 4.54999H20C20 3.66097 19.2617 2.96428 18.3824 2.96428V3.96428ZM19 4.54999V18.6643H20V4.54999H19ZM19 18.6643C19 18.9739 18.7369 19.25 18.3824 19.25V20.25C19.2617 20.25 20 19.5533 20 18.6643H19ZM6.5 5.25V0.25H5.5V5.25H6.5ZM14.5 5.25V0.25H13.5V5.25H14.5Z" fill="#7B96A3"/>
<path d="M11.434 7L7 12.7599H9.784L8.566 17L13 11.2401H10.216L11.434 7Z" stroke="#7B96A3" stroke-linecap="round" stroke-linejoin="round"/>
</svg>
