<svg width="20" height="20" viewBox="0 0 20 20" fill="none" xmlns="http://www.w3.org/2000/svg">
<path d="M18.7 8.5H16.73C16.56 7.72 16.25 6.97 15.82 6.3L17.21 4.91C17.33 4.79 17.33 4.6 17.21 4.49L15.51 2.79C15.39 2.67 15.2 2.67 15.09 2.79L13.7 4.18C13.03 3.75 12.28 3.44 11.5 3.27V1.3C11.5 1.13 11.37 1 11.2 1H8.8C8.63 1 8.5 1.13 8.5 1.3V3.27C7.72 3.44 6.97 3.75 6.3 4.18L4.91 2.79C4.79 2.67 4.6 2.67 4.49 2.79L2.79 4.49C2.67 4.61 2.67 4.8 2.79 4.91L4.18 6.3C3.75 6.98 3.44 7.72 3.27 8.5H1.3C1.13 8.5 1 8.63 1 8.8V11.2C1 11.37 1.13 11.5 1.3 11.5H3.27C3.44 12.28 3.75 13.03 4.18 13.7L2.79 15.09C2.67 15.21 2.67 15.4 2.79 15.51L4.49 17.21C4.61 17.33 4.8 17.33 4.91 17.21L6.3 15.82C6.97 16.25 7.72 16.56 8.5 16.73V18.7C8.5 18.87 8.63 19 8.8 19H11.2C11.37 19 11.5 18.87 11.5 18.7V16.73C12.28 16.56 13.03 16.25 13.7 15.82L15.09 17.21C15.21 17.33 15.4 17.33 15.51 17.21L17.21 15.51C17.33 15.39 17.33 15.2 17.21 15.09L15.82 13.7C16.25 13.03 16.56 12.28 16.73 11.5H18.7C18.87 11.5 19 11.37 19 11.2V8.8C19 8.63 18.87 8.5 18.7 8.5ZM10 13.6C8.01 13.6 6.4 11.99 6.4 10C6.4 8.01 8.01 6.4 10 6.4C11.99 6.4 13.6 8.01 13.6 10C13.6 11.99 11.99 13.6 10 13.6Z" fill="#2C8CAF"/>
</svg>
