<svg width="20" height="20" viewBox="0 0 20 20" fill="none" xmlns="http://www.w3.org/2000/svg">
<g clip-path="url(#clip0_694_21948)">
<path d="M10.0001 0.416668C7.84871 3.96667 1.42871 4.83333 1.42871 4.83333V9.73333C1.54871 14.0667 4.90871 17.9333 10.0001 19.5833C15.0916 17.9333 18.4516 14.0667 18.5716 9.73333V4.83333C18.5716 4.83333 12.1516 3.96667 10.0001 0.416668Z" stroke="#265C78" stroke-linejoin="round"/>
<path d="M6.14307 17.7C6.26307 16.9917 6.82878 16.4417 7.55735 16.325C8.84307 16.1 9.10021 15.7 9.10021 15.45V15.05C8.63735 14.6417 8.20021 13.975 8.20021 13.2V12C8.20021 10.7 9.15164 10.2 10.0002 10.2C10.8488 10.2 11.8002 10.7 11.8002 12V13.2C11.8002 13.9583 11.3631 14.6417 10.9002 15.05V15.45C10.9002 15.7 11.0288 16.0833 12.3145 16.325C13.0516 16.4667 13.6516 16.9917 13.8574 17.7" stroke="#265C78" stroke-linejoin="round"/>
<path d="M2.0459 12.725C2.26876 12.55 2.54304 12.425 2.84304 12.375C4.12876 12.15 4.3859 11.75 4.3859 11.5V11.1C3.92304 10.6917 3.4859 10.025 3.4859 9.25V8.05C3.4859 6.75 4.43733 6.25 5.2859 6.25C6.13447 6.25 7.0859 6.75 7.0859 8.05V9.25C7.0859 10.0083 6.64876 10.6917 6.1859 11.1V11.5C6.1859 11.75 6.31447 12.1333 7.60018 12.375C7.81447 12.4167 8.02018 12.4917 8.20018 12.5917" stroke="#265C78" stroke-linejoin="round"/>
<path d="M11.7998 12.525C11.9455 12.4583 12.1084 12.4083 12.2712 12.375C13.5569 12.15 13.8141 11.75 13.8141 11.5V11.1C13.3512 10.6917 12.9141 10.025 12.9141 9.25V8.05C12.9141 6.75 13.8655 6.25 14.7141 6.25C15.5627 6.25 16.5141 6.75 16.5141 8.05V9.25C16.5141 10.0083 16.0769 10.6917 15.6141 11.1V11.5C15.6141 11.75 15.7427 12.1333 17.0284 12.375C17.3627 12.4417 17.6712 12.5833 17.9284 12.7917" stroke="#265C78" stroke-linejoin="round"/>
</g>
<defs>
<clipPath id="clip0_694_21948">
<rect width="18" height="20" fill="white" transform="translate(1)"/>
</clipPath>
</defs>
</svg>
