<svg width="20" height="20" viewBox="0 0 20 20" fill="none" xmlns="http://www.w3.org/2000/svg">
<path d="M5.83528 15.2394L5.92364 15.7315L5.92393 15.7314L5.83528 15.2394ZM8.14764 12.8801H8.64764V12.6703L8.49793 12.5233L8.14764 12.8801ZM6.75586 9.45622L7.25586 9.46748V9.45622H6.75586ZM6.75586 7.92815H7.25586V7.91331L7.25498 7.8985L6.75586 7.92815ZM6.75586 7.53793L7.25501 7.56759L7.25528 7.56183L6.75586 7.53793ZM9.99264 4.59622L10.0379 4.09827L10.0272 4.0973L10.0165 4.09679L9.99264 4.59622ZM9.99971 4.59686L9.95444 5.09481L9.98915 5.09796L10.024 5.09627L9.99971 4.59686ZM10.3957 4.60201L10.3568 5.10049L10.357 5.1005L10.3957 4.60201ZM13.2391 7.92558L12.7406 7.88663L12.7391 7.90607V7.92558H13.2391ZM13.2391 9.45622H12.7389L12.7392 9.46724L13.2391 9.45622ZM11.8511 12.8775L11.5002 12.5213L11.3511 12.6682V12.8775H11.8511ZM14.1641 15.2374L14.0708 15.7286L14.0713 15.7287L14.1641 15.2374ZM18.5 10C18.5 14.6944 14.6944 18.5 10 18.5V19.5C15.2467 19.5 19.5 15.2467 19.5 10H18.5ZM10 18.5C5.30557 18.5 1.5 14.6944 1.5 10H0.5C0.5 15.2467 4.75329 19.5 10 19.5V18.5ZM1.5 10C1.5 5.30557 5.30557 1.5 10 1.5V0.5C4.75329 0.5 0.5 4.75329 0.5 10H1.5ZM10 1.5C14.6944 1.5 18.5 5.30557 18.5 10H19.5C19.5 4.75329 15.2467 0.5 10 0.5V1.5ZM4.33926 16.6004C4.75833 16.1458 5.31464 15.8408 5.92364 15.7315L5.74693 14.7472C4.92365 14.895 4.1711 15.3075 3.60402 15.9226L4.33926 16.6004ZM5.92393 15.7314C7.10901 15.518 7.81523 15.2056 8.21564 14.7972C8.6535 14.3505 8.64764 13.8681 8.64764 13.6207H7.64764C7.64764 13.8354 7.64179 13.9541 7.50156 14.0971C7.32387 14.2783 6.87391 14.5442 5.74664 14.7473L5.92393 15.7314ZM8.64764 13.6207V12.8801H7.64764V13.6207H8.64764ZM8.49793 12.5233C7.67972 11.72 7.22991 10.6138 7.25573 9.46748L6.25598 9.44496C6.22394 10.8675 6.78213 12.2402 7.79736 13.2369L8.49793 12.5233ZM7.25586 9.45622V7.92815H6.25586V9.45622H7.25586ZM7.25498 7.8985C7.24844 7.78839 7.24844 7.67769 7.25498 7.56759L6.25674 7.50828C6.24785 7.65789 6.24785 7.80819 6.25674 7.9578L7.25498 7.8985ZM7.25528 7.56183C7.32373 6.13139 8.53855 5.02721 9.96874 5.09565L10.0165 4.09679C8.03445 4.00194 6.35126 5.53219 6.25643 7.51404L7.25528 7.56183ZM9.94737 5.09417L9.95444 5.09481L10.045 4.09892L10.0379 4.09827L9.94737 5.09417ZM10.024 5.09627C10.137 5.09079 10.2477 5.09197 10.3568 5.10049L10.4346 4.10352C10.2802 4.09147 10.1272 4.09008 9.97547 4.09745L10.024 5.09627ZM10.357 5.1005C11.7852 5.21152 12.8521 6.45911 12.7406 7.88663L13.7376 7.96453C13.8921 5.98619 12.4134 4.25734 10.4345 4.10351L10.357 5.1005ZM12.7391 7.92558V7.93136H13.7391V7.92558H12.7391ZM12.7391 7.93136V9.45622H13.7391V7.93136H12.7391ZM12.7392 9.46724C12.7644 10.6127 12.3163 11.7173 11.5002 12.5213L12.2021 13.2337C13.2143 12.2364 13.7703 10.866 13.7389 9.4452L12.7392 9.46724ZM11.3511 12.8775V13.6181H12.3511V12.8775H11.3511ZM11.3511 13.6181C11.3511 13.867 11.3458 14.3443 11.7849 14.7879C12.1838 15.1909 12.8875 15.5037 14.0708 15.7286L14.2575 14.7462C13.1278 14.5315 12.675 14.2657 12.4956 14.0845C12.3565 13.9439 12.3511 13.8314 12.3511 13.6181H11.3511ZM14.0713 15.7287C14.7331 15.8537 15.3312 16.2058 15.7615 16.7237L16.5307 16.0847C15.9517 15.3877 15.1471 14.9143 14.257 14.7461L14.0713 15.7287Z" fill="#265C78"/>
</svg>
