<svg xmlns="http://www.w3.org/2000/svg" width="20" height="19" viewBox="0 0 20 19" fill="none">
<g clip-path="url(#clip0_6861_4940)">
<path d="M10 18.5C14.9706 18.5 19 14.4706 19 9.5C19 4.52944 14.9706 0.5 10 0.5C5.02944 0.5 1 4.52944 1 9.5C1 14.4706 5.02944 18.5 10 18.5Z" stroke="white" stroke-miterlimit="10"/>
<path d="M6.95673 9.5H8.98557M11.0144 14V9.5H8.98557M11.0144 14H8.98557V9.5M11.0144 14L13.0433 14" stroke="white" stroke-miterlimit="10"/>
<path d="M10 7C10.8284 7 11.5 6.32843 11.5 5.5C11.5 4.67157 10.8284 4 10 4C9.17157 4 8.5 4.67157 8.5 5.5C8.5 6.32843 9.17157 7 10 7Z" stroke="white" stroke-miterlimit="10"/>
</g>
<defs>
<clipPath id="clip0_6861_4940">
<rect width="19" height="19" fill="white" transform="translate(0.5)"/>
</clipPath>
</defs>
</svg>